<svg xmlns="http://www.w3.org/2000/svg" width="1200" height="330" viewBox="0 0 1200 330">
  <defs>
    <linearGradient id="winbar" x1="0" y1="0" x2="0" y2="1">
      <stop offset="0%" stop-color="#4097ff"/>
      <stop offset="100%" stop-color="#0646ad"/>
    </linearGradient>
    <filter id="shadow" x="-20%" y="-20%" width="140%" height="140%">
      <feDropShadow dx="0" dy="6" stdDeviation="7" flood-color="#001d4d" flood-opacity=".28"/>
    </filter>
  </defs>
  <rect width="1200" height="330" fill="#f4f7fb"/>
  <g filter="url(#shadow)">
    <rect x="44" y="31" width="1112" height="266" rx="9" fill="#ece9d8" stroke="#0755c8" stroke-width="4"/>
    <path d="M49 35 H1151 V75 H49 Z" fill="url(#winbar)"/>
    <text x="70" y="62" fill="#fff" font-family="Tahoma, Verdana, sans-serif" font-size="20" font-weight="bold">
      Featured Project — Internship Workflow Management System
    </text>

    <g transform="translate(1070,43)">
      <rect width="25" height="23" rx="3" fill="#2e80e8" stroke="#fff"/>
      <path d="M6 16 H19" stroke="#fff" stroke-width="3"/>
      <rect x="31" width="25" height="23" rx="3" fill="#2e80e8" stroke="#fff"/>
      <rect x="38" y="6" width="11" height="10" fill="none" stroke="#fff" stroke-width="2"/>
      <rect x="62" width="25" height="23" rx="3" fill="#e13c2f" stroke="#fff"/>
      <path d="M69 6 L80 17 M80 6 L69 17" stroke="#fff" stroke-width="3"/>
    </g>

    <rect x="74" y="100" width="250" height="166" rx="7" fill="#fff" stroke="#aca899"/>
    <rect x="95" y="121" width="208" height="116" rx="8" fill="#0c2c4f"/>
    <rect x="111" y="137" width="176" height="17" rx="4" fill="#2c86d1"/>
    <rect x="111" y="166" width="78" height="54" rx="5" fill="#e7f2fa"/>
    <rect x="199" y="166" width="88" height="24" rx="5" fill="#58b66b"/>
    <rect x="199" y="198" width="88" height="22" rx="5" fill="#f2b84b"/>
    <text x="199" y="255" text-anchor="middle" font-family="Tahoma, Verdana, sans-serif" font-size="14" font-weight="bold" fill="#143c75">LIVE PRODUCTION DEMO</text>

    <g font-family="Tahoma, Verdana, sans-serif">
      <text x="364" y="119" font-size="27" font-weight="bold" fill="#143c75">From workflow logic to a deployed product.</text>
      <text x="364" y="151" font-size="16" fill="#333">A role-based platform for internship reports, company registration,</text>
      <text x="364" y="175" font-size="16" fill="#333">supervisor token/OTP verification and administrative assessment.</text>

      <text x="364" y="213" font-size="15" font-weight="bold" fill="#333">Engineering:</text>
      <text x="470" y="213" font-size="15" fill="#333">Spring Boot • React • PostgreSQL • JWT • Docker</text>

      <text x="364" y="241" font-size="15" font-weight="bold" fill="#333">Production:</text>
      <text x="470" y="241" font-size="15" fill="#333">Vercel • Render • Neon PostgreSQL • realistic demo dataset</text>

      <rect x="891" y="203" width="208" height="40" rx="6" fill="#f6f6f6" stroke="#888"/>
      <text x="995" y="229" text-anchor="middle" font-size="15" font-weight="bold" fill="#222">LIVE DEMO  →</text>
    </g>
  </g>
</svg>
